<?xml version="1.0" standalone="no"?><!DOCTYPE svg PUBLIC "-//W3C//DTD SVG 1.1//EN" "http://www.w3.org/Graphics/SVG/1.1/DTD/svg11.dtd"><svg t="1565528345686" class="icon" viewBox="0 0 1024 1024" version="1.1" xmlns="http://www.w3.org/2000/svg" p-id="6738" xmlns:xlink="http://www.w3.org/1999/xlink" width="200" height="200"><defs><style type="text/css"></style></defs><path d="M766.2 791.4v-0.1H321.6c-16.1 0-29.2-13.1-29.2-29.2s13.1-29.2 29.2-29.2H751.5v-0.1c28.2-1.5 50.6-24.8 50.6-53.4l-0.2-480.5c0-25-20.4-45.4-45.4-45.4H539.6c0.4 2 0.6 4 0.6 6v258.8c-0.7 12.1-14.8 18.6-24.8 11.7l-55.6-38.1c-5.4-3.7-12.5-3.7-17.9 0L386.3 430c-10 6.9-24.1 0.4-24.8-11.7V159.5c0-2.1 0.2-4.1 0.6-6H260.4c-25 0-45.4 20.4-45.4 45.4v622.6c0 25 20.4 45.4 45.4 45.4h496.1c1.2 0 2.5-0.1 3.7-0.2 1.1 0.1 2.2 0.2 3.3 0.2 20.9 0 37.8-16.9 37.8-37.8 0-20-15.4-36.3-35.1-37.7z" p-id="6739" fill="#F17334"></path></svg>