<?xml version="1.0" standalone="no"?><!DOCTYPE svg PUBLIC "-//W3C//DTD SVG 1.1//EN" "http://www.w3.org/Graphics/SVG/1.1/DTD/svg11.dtd"><svg t="1565615414834" class="icon" viewBox="0 0 1024 1024" version="1.1" xmlns="http://www.w3.org/2000/svg" p-id="4100" xmlns:xlink="http://www.w3.org/1999/xlink" width="200" height="200"><defs><style type="text/css"></style></defs><path d="M877.9 402.6V847c0 21.9-17.8 39.7-39.7 39.7H185.4c-21.9 0-39.7-17.8-39.7-39.7V402.6c0-11.3 4.8-21.5 12.4-28.8l-23.3-24.3c-2.7-2.9-7.4-2.4-9.6 0.9l0.5-1.8c-10.7 13.5-19.5 35.5-19.5 54v444.5c0 43.8 35.5 79.3 79.3 79.3h652.6c43.8 0 79.5-35.6 79.4-79.5V402.6c0-10.1-1.9-19.8-5.4-28.8l-18-23.8c-1.3-1.4-5.9-2.8-6.2-1-1.6 12.8-10 43.9-10 53.6z" p-id="4101" fill="#bbbbbb"></path><path d="M504.9 656.3c-14.7 0-29.3-4.7-41.7-14.1L130.9 390.8c-8.7-6.7-10.5-19-3.8-27.8 6.7-8.7 19-10.5 27.8-3.8l332.3 251.4c10.3 7.8 24.5 8 34.9 0.4l345-248.1c8.9-6.5 21.3-4.3 27.7 4.6 6.5 8.9 4.3 21.3-4.6 27.7l-345.1 248c-12 8.7-26.1 13.1-40.2 13.1z m224.6-205.2c-9.8 0-17.8-8-17.8-17.8V132.6H312.5v300.8c0 9.8-8 17.8-17.8 17.8s-17.8-8-17.8-17.8V114.7c0-9.8 8-17.8 17.8-17.8h434.8c9.8 0 17.8 8 17.8 17.8v318.6c0 9.9-8 17.8-17.8 17.8z m-598.2-65.3c-5.9 0-11.8-3-15.1-8.4-5.2-8.3-2.7-19.3 5.7-24.6l141-88.1c8.3-5.2 19.3-2.7 24.6 5.7 5.2 8.3 2.7 19.3-5.7 24.6l-141 88.1c-2.9 1.8-6.2 2.7-9.5 2.7z m766.5 0c-3.2 0-6.5-0.9-9.4-2.7l-141-88.1c-8.4-5.2-10.9-16.2-5.7-24.6 5.2-8.4 16.3-10.9 24.6-5.7l141 88.1c8.3 5.2 10.9 16.2 5.7 24.6-3.5 5.4-9.3 8.4-15.2 8.4zM662.7 189.6H352.8c-8 0-14.5-8-14.5-17.8s6.5-17.8 14.5-17.8h309.8c8 0 14.5 8 14.5 17.8 0.1 9.8-6.4 17.8-14.4 17.8z m0 95.1H352.8c-8 0-14.5-8-14.5-17.8s6.5-17.8 14.5-17.8h309.8c8 0 14.5 8 14.5 17.8 0.1 9.9-6.4 17.8-14.4 17.8z m0 95.1H352.8c-8 0-14.5-8-14.5-17.8s6.5-17.8 14.5-17.8h309.8c8 0 14.5 8 14.5 17.8 0.1 9.8-6.4 17.8-14.4 17.8z m0 95.2H352.8c-8 0-14.5-8-14.5-17.8s6.5-17.8 14.5-17.8h309.8c8 0 14.5 8 14.5 17.8 0.1 9.8-6.4 17.8-14.4 17.8z m110.5 0" p-id="4102" fill="#bbbbbb"></path></svg>