<?xml version="1.0" standalone="no"?><!DOCTYPE svg PUBLIC "-//W3C//DTD SVG 1.1//EN" "http://www.w3.org/Graphics/SVG/1.1/DTD/svg11.dtd"><svg t="1565615018286" class="icon" viewBox="0 0 1024 1024" version="1.1" xmlns="http://www.w3.org/2000/svg" p-id="2048" xmlns:xlink="http://www.w3.org/1999/xlink" width="200" height="200"><defs><style type="text/css"></style></defs><path d="M201.6256 332.8c-32.8704 56.8832-86.784 95.7952-144.6912 106.3936a464.5888 464.5888 0 0 0 0 145.6128c57.856 10.5984 111.8208 49.5104 144.6912 106.3936 32.8192 56.832 39.5776 123.0336 19.7632 178.432a460.2368 460.2368 0 0 0 126.1056 72.96C385.536 897.6896 446.3104 870.4 512 870.4c65.7408 0 126.4128 27.2896 164.5056 72.192a460.2368 460.2368 0 0 0 126.1056-72.96c-19.8144-55.3984-13.056-121.5488 19.7632-178.432 32.8704-56.8832 86.784-95.7952 144.6912-106.3936a464.5888 464.5888 0 0 0 0-145.6128c-57.856-10.5984-111.8208-49.5104-144.6912-106.3936-32.8192-56.832-39.5776-123.0336-19.7632-178.432a460.2368 460.2368 0 0 0-126.1056-72.96C638.464 126.3104 577.6896 153.6 512 153.6c-65.7408 0-126.4128-27.2896-164.5056-72.192a460.2368 460.2368 0 0 0-126.1056 72.96c19.8144 55.3984 13.056 121.5488-19.7632 178.432z m-43.6224-190.72A511.488 511.488 0 0 1 368.5888 20.3776C390.7584 68.352 446.6176 102.4 512 102.4c65.3824 0 121.2416-34.048 143.36-82.0224a511.488 511.488 0 0 1 210.6368 121.7024c-30.4128 43.2128-31.9488 108.544 0.7168 165.12 32.7168 56.6272 90.112 87.9616 142.7456 83.1488 9.5232 39.0144 14.5408 79.7184 14.5408 121.6512s-5.0176 82.6368-14.5408 121.6512c-52.6336-4.8128-110.08 26.5216-142.7456 83.1488-32.6656 56.576-31.1296 121.9072-0.7168 165.12a511.488 511.488 0 0 1-210.5856 121.7024C633.2416 955.648 577.3824 921.6 512 921.6c-65.3824 0-121.2416 34.048-143.36 82.0224a511.488 511.488 0 0 1-210.6368-121.7024c30.4128-43.2128 31.9488-108.544-0.7168-165.12-32.7168-56.6272-90.112-87.9616-142.7456-83.1488A513.2288 513.2288 0 0 1 0 512c0-41.9328 5.0176-82.6368 14.5408-121.6512 52.6336 4.8128 110.08-26.5216 142.7456-83.1488 32.6656-56.576 31.1296-121.9072 0.7168-165.12z" p-id="2049" fill="#bbbbbb"></path><path d="M512 691.2a179.2 179.2 0 1 1 0-358.4 179.2 179.2 0 0 1 0 358.4z m0-51.2a128 128 0 1 0 0-256 128 128 0 0 0 0 256z" p-id="2050" fill="#bbbbbb"></path></svg>