<?xml version="1.0" standalone="no"?><!DOCTYPE svg PUBLIC "-//W3C//DTD SVG 1.1//EN" "http://www.w3.org/Graphics/SVG/1.1/DTD/svg11.dtd"><svg t="1565615215406" class="icon" viewBox="0 0 1044 1024" version="1.1" xmlns="http://www.w3.org/2000/svg" p-id="3094" xmlns:xlink="http://www.w3.org/1999/xlink" width="203.90625" height="200"><defs><style type="text/css"></style></defs><path d="M837.540308 18.10331c-105.143689 0-190.404538 85.260849-190.404538 190.417841 0 37.787628 11.015891 72.998571 30.001291 102.615099-12.719696 4.704139-26.276457 5.071506-38.790468 1.612731-28.169573-7.79964-59.32106-4.843308-86.763063 10.705829-27.41949 15.550161-45.949518 40.752146-53.736878 68.922742l-0.024559 0c-4.331655 15.650445-14.625092 29.64825-29.873378 38.299281-15.248286 8.626471-32.55137 10.265808-48.176233 5.934153-28.195156-7.78736-59.320037-4.833075-86.765109 10.717086-27.444049 15.551184-45.998637 40.74089-53.785997 68.910463-2.27788 8.250918-6.228865 16.031115-11.668761 22.815635-27.28339-35.499515-70.148663-58.384735-118.364805-58.384735-82.381266 0-149.189857 66.768683-149.189857 149.164275 0 82.393545 66.807568 149.175531 149.189857 149.175531 44.210921 0 83.922365-19.240203 111.236454-49.798173l260.513292 134.464481c-1.067308 6.497994-1.632173 13.163811-1.632173 19.962657 0 67.520813 54.736649 122.259508 122.245182 122.259508s122.246205-54.737672 122.246205-122.259508c0-67.508533-54.737672-122.245182-122.246205-122.245182-40.083927 0-75.665307 19.297508-97.960079 49.108464L289.861714 679.536714c5.492084-15.547091 8.490372-32.274054 8.490372-49.703005 0-11.707646-1.326205-23.100114-3.8814-34.043351-0.74292-3.160993-1.590218-6.281053-2.52859-9.361205 17.854647-15.098883 30.210046-34.986839 36.207643-56.644091 4.331655-15.662725 14.624069-29.66053 29.872355-38.287001 15.249309-8.651031 32.552393-10.29139 48.202838-5.959735 28.16855 7.78736 59.319014 4.833075 86.73748-10.717086 27.445072-15.537881 45.998637-40.74089 53.78702-68.910463 4.331655-15.650445 14.624069-29.66053 29.872355-38.287001 15.249309-8.637728 32.553417-10.278087 48.177256-5.946432 28.116361 7.765871 59.169611 4.845355 86.558401-10.591219 0.514723 0.455371 1.014096 0.926092 1.532913 1.376347 33.404808 28.946262 76.973092 46.486754 124.649951 46.486754 105.168248 0 190.43012-85.260849 190.43012-190.429097C1027.970428 103.364159 942.709579 18.10331 837.540308 18.10331zM641.551588 815.729559c37.484729 0 67.908646 30.399357 67.908646 67.908646 0 37.510312-30.423917 67.921949-67.908646 67.921949-37.509289 0-67.908646-30.411637-67.908646-67.921949C573.642942 846.128917 604.042299 815.729559 641.551588 815.729559zM149.188834 724.759685c-52.433186 0-94.952582-42.493813-94.952582-94.926999 0-52.422953 42.519396-94.91472 94.952582-94.91472 21.809725 0 41.86755 7.360641 57.892525 19.693528 2.278903 1.765203 4.507664 3.63069 6.610558 5.596462 8.213056 7.612375 15.049764 16.638959 20.182668 26.717502 3.956102 7.824199 6.885827 16.275685 8.56405 25.165146 1.075495 5.746888 1.678222 11.668761 1.678222 17.742083 0 16.739243-4.336772 32.463366-11.939937 46.11734-1.090844 1.461281-2.085498 3.037173-2.958378 4.725628-0.161682 0.313132-0.311085 0.627287-0.461511 0.942465C211.819267 707.591677 182.513824 724.759685 149.188834 724.759685zM837.540308 346.416777c-76.147284 0-137.870044-61.748343-137.870044-137.895627s61.72276-137.883347 137.870044-137.883347c76.171843 0 137.920186 61.736063 137.920186 137.883347S913.712151 346.416777 837.540308 346.416777z" p-id="3095" fill="#bbbbbb"></path></svg>